<svg width="32" height="32" viewBox="0 0 32 32" fill="none" xmlns="http://www.w3.org/2000/svg">
  <!-- Background circle -->
  <circle cx="16" cy="16" r="16" fill="#f97316"/>
  
  <!-- Building/Property icon -->
  <rect x="8" y="12" width="16" height="16" rx="2" fill="white"/>
  
  <!-- Building windows -->
  <rect x="10" y="14" width="2" height="2" fill="#f97316"/>
  <rect x="13" y="14" width="2" height="2" fill="#f97316"/>
  <rect x="16" y="14" width="2" height="2" fill="#f97316"/>
  <rect x="19" y="14" width="2" height="2" fill="#f97316"/>
  
  <rect x="10" y="17" width="2" height="2" fill="#f97316"/>
  <rect x="13" y="17" width="2" height="2" fill="#f97316"/>
  <rect x="16" y="17" width="2" height="2" fill="#f97316"/>
  <rect x="19" y="17" width="2" height="2" fill="#f97316"/>
  
  <rect x="10" y="20" width="2" height="2" fill="#f97316"/>
  <rect x="13" y="20" width="2" height="2" fill="#f97316"/>
  <rect x="16" y="20" width="2" height="2" fill="#f97316"/>
  <rect x="19" y="20" width="2" height="2" fill="#f97316"/>
  
  <!-- Door -->
  <rect x="14" y="24" width="4" height="4" fill="#f97316"/>
  
  <!-- MR3X text -->
  <text x="16" y="10" text-anchor="middle" font-family="Arial, sans-serif" font-size="6" font-weight="bold" fill="white">MR3X</text>
</svg>
